inDegrees=no
num_controls=7
num_derivatives=13
num_iterations=109
num_multipliers=7
num_parameters=0
num_slacks=7
num_states=26
objective=4.218014
objective_accelerations=0.667712
objective_balance=0.023458
objective_effort=0.657317
objective_height=2.789175
objective_ligament=0.080353
solver_duration=1096.396193
status=Solve_Succeeded
success=true
DataType=double
version=3
OpenSimVersion=4.4-2022-07-23-0e9fedc
endheader
time	/jointset/ground_pelvis/pelvis_tilt/value	/jointset/ground_pelvis/pelvis_tx/value	/jointset/ground_pelvis/pelvis_ty/value	/jointset/hip_l/hip_flexion_l/value	/jointset/hip_l/hip_adduction_l/value	/jointset/hip_l/hip_rotation_l/value	/jointset/back/lumbar_extension/value	/jointset/patellofemoral_l/patellar_flexion_l/value	/jointset/knee_l/knee_flexion_l/value	/jointset/knee_l/knee_adduction_l/value	/jointset/knee_l/knee_rotation_l/value	/jointset/ankle_l/ankle_angle_l/value	/jointset/subtalar_l/subtalar_angle_l/value	/jointset/ground_pelvis/pelvis_tilt/speed	/jointset/ground_pelvis/pelvis_tx/speed	/jointset/ground_pelvis/pelvis_ty/speed	/jointset/hip_l/hip_flexion_l/speed	/jointset/hip_l/hip_adduction_l/speed	/jointset/hip_l/hip_rotation_l/speed	/jointset/back/lumbar_extension/speed	/jointset/patellofemoral_l/patellar_flexion_l/speed	/jointset/knee_l/knee_flexion_l/speed	/jointset/knee_l/knee_adduction_l/speed	/jointset/knee_l/knee_rotation_l/speed	/jointset/ankle_l/ankle_angle_l/speed	/jointset/subtalar_l/subtalar_angle_l/speed	/forceset/tau_hip_flexion_l	/forceset/tau_hip_adduction_l	/forceset/tau_hip_rotation_l	/forceset/tau_knee_flexion_l	/forceset/tau_ankle_angle_l	/forceset/tau_subtalar_angle_l	/forceset/tau_lumbar_extension	lambda_cid13_p0	lambda_cid13_p1	lambda_cid13_p2	lambda_cid13_p3	lambda_cid13_p4	lambda_cid13_p5	lambda_cid14_p0	/jointset/ground_pelvis/pelvis_tilt/accel	/jointset/ground_pelvis/pelvis_tx/accel	/jointset/ground_pelvis/pelvis_ty/accel	/jointset/hip_l/hip_flexion_l/accel	/jointset/hip_l/hip_adduction_l/accel	/jointset/hip_l/hip_rotation_l/accel	/jointset/back/lumbar_extension/accel	/jointset/patellofemoral_l/patellar_flexion_l/accel	/jointset/knee_l/knee_flexion_l/accel	/jointset/knee_l/knee_adduction_l/accel	/jointset/knee_l/knee_rotation_l/accel	/jointset/ankle_l/ankle_angle_l/accel	/jointset/subtalar_l/subtalar_angle_l/accel	gamma_cid13_p0	gamma_cid13_p1	gamma_cid13_p2	gamma_cid13_p3	gamma_cid13_p4	gamma_cid13_p5	gamma_cid14_p0
1	-0.09186830045151829	-0.07175301647020174	0.4205766782682145	2.08884249553705	-0.2956279504543771	0.1220642233984689	-0.959912253724038	2.092474396717085	2.092474396717088	0.1744094695063926	-0.1745319120340791	0.2430046082120431	0.09032116747638096	0.02767775306987147	-0.0004416271770554289	0.08419893072801619	-0.3066271538855535	-0.02063477859605641	-0.05781608985764738	-0.00226712832447361	-0.1720352448594249	-0.1720352448593742	-0.01860263987218103	0.0001567565426880058	0.1001918718895374	0.02067739737093374	-0.3863808445682735	-0.04881959577959569	-0.06261770513191622	-0.4462672756888345	0.1180543600694769	0.002473986551031614	0.4469802061569416	-20.22713530592479	11.65768912152367	-12.81064238393116	24.89715567929518	-870.6922314421739	-36.49060685920684	-0.02255291016488092	-0.9571055080592616	-0.6503099862773645	2.847846634862642	-8.41203359115195	-0.4498985545199305	-1.983479461761221	0.1935641434467034	-7.624362982211131	-7.624362982211078	-1.209907053476624	0.006584763191977403	1.305794585459373	0.05879992412457623	3.464562693172818e-08	2.248983459086541e-08	-3.271110049130133e-07	-6.619332975448186e-08	-8.928883554316645e-08	-3.32157572973258e-07	3.196263929550389e-08
1.01	-0.09163872666890885	-0.07179000435852566	0.421561272993031	2.085354908949424	-0.29585507015781	0.1213914418087801	-0.9599266725192641	2.090372147783308	2.090372147783353	0.1741594848692167	-0.1745292124143639	0.2440711619632151	0.09053273547396717	0.01832699548035179	-0.006952625729716228	0.1127356659615763	-0.3909104347155227	-0.02474771579453686	-0.07667028778931853	-0.0007662180096778114	-0.2484661554360783	-0.2484661554360555	-0.03145435498101719	0.0003827960092103065	0.1129906526487187	0.02162998007645655	-0.3855612773516714	-0.04838640862554652	-0.06250952672544166	-0.4480619731733285	0.1183173762972397	0.002897162591792834	0.4462505943330334	-20.12580753320243	11.45739300704591	-12.78011599647175	24.98734054242002	-870.6233787753857	-37.09611052271654	-0.02272584196459192	-0.9105618316959913	-0.6510164471756178	2.858908330774177	-8.43951614598371	-0.3856961994386862	-1.825896174082531	0.1059163807351913	-7.660207254722713	-7.660207254726692	-1.331766136905381	0.03045170274916758	1.247687871491657	0.1126099293481908	5.208606663132836e-08	-1.222929339656964e-08	-4.541139419922314e-07	-1.014994240517415e-07	-1.315525566136004e-07	-5.82073002118249e-07	5.045464502861567e-08
1.02	-0.09149996065166277	-0.0718920065638584	0.4228316993428187	2.081023881390134	-0.2961220602126147	0.1205322169967182	-0.9599305698298501	2.0875040393119	2.087504039311939	0.1737791906014023	-0.1745242847671797	0.2452618571320443	0.09075365379572602	0.00951619999897374	-0.01344449057882347	0.141365255722241	-0.4753153482280592	-0.02860884887008111	-0.09510473432946445	-0.0001628314852446931	-0.3252071523859528	-0.3252071523859582	-0.04466456598260277	0.0006023620503995747	0.1250201554216639	0.02254746220526162	-0.3847417101349	-0.04795322147145546	-0.06240134831903116	-0.44985667065783	0.1185803925249502	0.00332033863258477	0.445520982509268	-20.0109580875529	11.25632094112682	-12.75128349579778	25.02962447758594	-870.3776642416843	-37.6528006114893	-0.02296227413697497	-0.8491130864308166	-0.6464832455666173	2.866417540283592	-8.436360127665738	-0.3995377299328021	-1.899529183455709	0.01405938537603202	-7.686380256855378	-7.686380256855344	-1.281606232027003	0.005290078125016308	1.151938988212284	0.05177980878093821	7.139732307647828e-08	-6.282726965408793e-08	-6.192459477617637e-07	-1.324506581718223e-07	-1.77836014678948e-07	-9.341861615728177e-07	7.736724866664924e-08
1.03	-0.09144689093707772	-0.072058435239408	0.4243888024980035	2.075848984735047	-0.2964264706437008	0.1194909731796034	-0.9599308843893203	2.083867449668161	2.083867449668192	0.1732649652700184	-0.1745174119186586	0.246569027959927	0.0909834950757631	0.001157396039308685	-0.01979863089350283	0.1700629780582246	-0.5596088028052209	-0.03223693930580063	-0.1130831417755875	0.0001547332599927189	-0.4021160970655717	-0.4021160970655759	-0.05821453634930007	0.0007651513865743666	0.1362909883982453	0.02341036867704201	-0.3854552633976573	-0.04763594573931771	-0.06215545152550071	-0.451395620967573	0.1189152504948914	0.003847771550930324	0.44664368155869	-19.90790155351867	11.000853437884	-12.7010072511944	24.43079964010197	-871.2433188791036	-38.24584345714784	-0.0232330861827338	-0.8203112942766813	-0.623520237467692	2.872544879067373	-8.417557212617288	-0.338872347399632	-1.737854423167245	0.04882713449234748	-7.693970715902299	-7.693970715902005	-1.396708713527489	0.02052263267016865	1.09620327055432	0.102093737254772	9.072766948841953e-08	-1.135872749755868e-07	-7.847670256607891e-07	-1.633574549431562e-07	-2.241604904687334e-07	-1.287342155010138e-06	1.043657767731004e-07
1.04	-0.0914756187108048	-0.07228713348071361	0.4262331019363115	2.06983280971623	-0.2967660475085543	0.1182717737084416	-0.9599263788824228	2.079461606749148	2.079461606749166	0.1726142369801024	-0.1745091613224699	0.2479852166812044	0.09122167495469455	-0.006843297662015814	-0.02589840373002517	0.1988045123468657	-0.6435710209774247	-0.03564213562185577	-0.1306958651407572	0.0008011826210482493	-0.4790578074406871	-0.4790578074406913	-0.07196515769746588	0.0008779115750071866	0.1468237341017604	0.02421518198395475	-0.386168816660367	-0.04731867000710797	-0.06190955473189291	-0.4529345712773161	0.1192501084648294	0.004375204469366739	0.4477663806081614	-19.79191571599666	10.74374133696626	-12.65117576853231	23.79050384951717	-871.9369944225544	-38.79801728398309	-0.0235651597840894	-0.777491034762618	-0.5956097499351708	2.875179930815153	-8.370112846674482	-0.3549589060000161	-1.826392367264595	0.07983630854059	-7.692933395954682	-7.692933395954876	-1.321736428321198	-0.00471575142370725	1.004321533599208	0.04016117580734538	1.093974794781357e-07	-1.706525262750916e-07	-9.550576234598272e-07	-1.863149786912537e-07	-2.637282644569639e-07	-1.677247885092038e-06	1.350047157981421e-07
1.05	-0.09158273793705921	-0.07257528523876169	0.4283650365575098	2.062979101079532	-0.297138558770135	0.116878538156088	-0.9599125449118786	2.074286304805362	2.074286304805409	0.1718248227779439	-0.1745001422202239	0.2495029176913	0.09146755803576538	-0.01454091803153282	-0.03166255947056534	0.2275902369648644	-0.7270755965357049	-0.03882118964588937	-0.1478908935644194	0.002144473547042772	-0.5559983505515054	-0.5559983505516607	-0.08594393482658017	0.0009204794574585348	0.1565836680372343	0.02494978906920056	-0.3878063379265773	-0.04698811159214605	-0.06152481927475609	-0.4546948420900714	0.11994281431649	0.00497911922937927	0.4500668837992239	-19.59636695740289	10.43540129142071	-12.58851604746481	22.68114556981668	-873.5515163510179	-39.46173782357188	-0.023934619853043	-0.7599421166277442	-0.5564522588570245	2.881381473714707	-8.326353865513498	-0.2933614192346786	-1.656985354399931	0.1884047853681499	-7.694013616062232	-7.69401361608465	-1.439751416411603	0.007646055310280409	0.9419088542537527	0.08853408732335491	1.280466477046573e-07	-2.279148165114092e-07	-1.125497268755741e-06	-2.09024087657375e-07	-3.030848915138959e-07	-2.068302044444082e-06	1.657574176643896e-07
1.06	-0.09176564228272914	-0.07291900530876325	0.4307850509741738	2.055293201896241	-0.2975416571256914	0.1153151668645866	-0.9598799121715939	2.068341717660985	2.06834171766105	0.1708948601924022	-0.1744909168396598	0.251114233946894	0.09172047191017767	-0.02200032154427443	-0.03701206612072011	0.2564204714399682	-0.8100091302983321	-0.04175955441510882	-0.1647230129673887	0.004560936502633344	-0.6329148475590071	-0.6329148475593128	-0.1000748344039074	0.0009191672291408279	0.1655467832019997	0.02562134065205658	-0.3894438591927576	-0.04665755317715749	-0.06114008381735653	-0.4564551129028296	0.1206355201681412	0.005583033989419188	0.4523673869903031	-19.38866598915789	10.12458782409447	-12.52506678603923	21.53611494025219	-875.0024338045134	-40.09213003122611	-0.02436189516125399	-0.7298476634074884	-0.5126799318580557	2.884081902236216	-8.25590448754418	-0.3068210550372134	-1.753810563125595	0.2944707144586733	-7.688124175291432	-7.688124175291433	-1.352160917964211	-0.01349177357770745	0.8449577794576699	0.0275500753294194	1.502018624797933e-07	-2.943544989367166e-07	-1.297089349544993e-06	-2.362178295328652e-07	-3.37954863303127e-07	-2.499895862687011e-06	1.999503248268872e-07
